<?xml version="1.0" encoding="utf-8"?>
<!-- Generator: Adobe Illustrator 26.4.1, SVG Export Plug-In . SVG Version: 6.00 Build 0)  -->
<svg version="1.1" id="Layer_1" xmlns="http://www.w3.org/2000/svg" xmlns:xlink="http://www.w3.org/1999/xlink" x="0px" y="0px"
	 viewBox="0 0 800 800" style="enable-background:new 0 0 800 800;" xml:space="preserve">
<style type="text/css">
	.st0{fill:#FFFFFF;}
</style>
<g>
	<g>
		<path class="st0" d="M588.5,214.8H576V61.8v-50C576,5.3,570.7,0,564.2,0h-62.3c-6.5,0-11.8,5.3-11.8,11.8v50v152.9h-12.5
			c-6.5,0-11.8,5.3-11.8,11.8v50c0,6.5,5.3,11.8,11.8,11.8h17.2v310.9c0,35-10.9,67.8-30.6,92.2c-17.9,22.1-40.9,34.3-64.7,34.3
			c-23.8,0-46.8-12.2-64.7-34.3c-19.8-24.4-30.6-57.1-30.6-92.2V288.4h18.4c6.5,0,11.8-5.3,11.8-11.8v-50c0-6.5-5.3-11.8-11.8-11.8
			H310V61.8v-50C310,5.3,304.6,0,298.1,0h-62.3C229.3,0,224,5.3,224,11.8v50v152.9h-12.5c-6.5,0-11.8,5.3-11.8,11.8v50
			c0,6.5,5.3,11.8,11.8,11.8h18.4v310.9c0,110.7,76,200.7,169.5,200.7c93.5,0,169.5-90,169.5-200.7V288.4h19.6
			c6.5,0,11.8-5.3,11.8-11.8v-50C600.4,220.1,595.1,214.8,588.5,214.8z M513.7,23.7h38.6V50h-38.6V23.7z M513.7,73.7h38.6v141.1
			h-38.6V73.7z M247.7,23.7h38.6V50h-38.6V23.7z M247.7,73.7h38.6v141.1h-38.6V73.7z M223.3,264.7v-26.3h9.2
			c1.1,0.3,2.2,0.5,3.4,0.5h62.3c1.2,0,2.3-0.2,3.4-0.5h9.2v26.3L223.3,264.7L223.3,264.7z M545.2,599.3c0,97.6-65.4,177-145.8,177
			c-80.4,0-145.8-79.4-145.8-177V290.9h26.8v308.5c0,40.4,12.8,78.5,35.9,107.1c22.5,27.8,52,43.1,83.1,43.1s60.6-15.3,83.1-43.1
			c23.2-28.6,35.9-66.6,35.9-107.1V290.9h26.8V599.3z M576.7,264.7L576.7,264.7h-87.4v-26.3h9.2c1.1,0.3,2.2,0.5,3.4,0.5h62.3
			c1.2,0,2.3-0.2,3.4-0.5h9.2V264.7z"/>
	</g>
</g>
</svg>
