<?xml version="1.0" encoding="utf-8"?>
<!-- Generator: Adobe Illustrator 26.4.1, SVG Export Plug-In . SVG Version: 6.00 Build 0)  -->
<svg version="1.1" id="Capa_1" xmlns="http://www.w3.org/2000/svg" xmlns:xlink="http://www.w3.org/1999/xlink" x="0px" y="0px"
	 viewBox="0 0 64 64" style="enable-background:new 0 0 64 64;" xml:space="preserve">
<style type="text/css">
	.st0{fill:none;stroke:#FFFFFF;stroke-width:2;stroke-linecap:round;stroke-linejoin:round;stroke-miterlimit:2;}
</style>
<path class="st0" d="M36.8,25.4H3.9l3.4,32.5c0.2,1.5,1.3,2.6,2.7,2.6h20.8c1.4,0,2.5-1.1,2.7-2.6L36.8,25.4z"/>
<path class="st0" d="M39.6,20.5c0-1.6-1.2-2.9-2.7-2.9H3.8c-1.5,0-2.7,1.3-2.7,2.9c0,0,0,0,0,0v1.9c0,1.6,1.2,2.9,2.7,2.9
	c0,0,0,0,0,0h33.1c1.5,0,2.7-1.3,2.7-2.9c0,0,0,0,0,0V20.5z"/>
<path class="st0" d="M33.6,17.6H7.1v-2.3c0-1.6,1.2-2.9,2.7-2.9h21.1c1.5,0,2.7,1.3,2.7,2.9v0V17.6z M19.2,35.8
	c0.6,3.7,1.2,4.5-0.3,9.5c-0.7,2.2-0.5,4.4,0.1,6.1l-0.1,0c-2.6,0-4.8-3.5-4.8-7.8s2.1-7.8,4.8-7.8L19.2,35.8z M22.1,35.7
	c2.5,0.2,4.5,3.6,4.5,7.8c0,4.3-2.1,7.7-4.7,7.8c-0.6-1.8-0.8-3.9-0.1-6.1C23.3,40.3,22.6,39.4,22.1,35.7z M38.8,57.8l17.8,1.9
	c3,0.3,5.7-2,6.1-5.3c0.8-7.7-0.8-20.4-20.3-22.5c-2.3-0.2-4.3-0.3-6.2-0.2"/>
<path class="st0" d="M49.9,34.1c0.8,1.6,2.1,5.3,2.1,12 M40,32.1c0,0,2.7,3.5,2.6,12.9 M20.1,12.4l1.2-9.1l9.5,1.3"/>
</svg>
