<?xml version="1.0" encoding="utf-8"?>
<!-- Generator: Adobe Illustrator 26.4.1, SVG Export Plug-In . SVG Version: 6.00 Build 0)  -->
<svg version="1.1" id="Capa_1" xmlns="http://www.w3.org/2000/svg" xmlns:xlink="http://www.w3.org/1999/xlink" x="0px" y="0px"
	 viewBox="0 0 800 800" style="enable-background:new 0 0 800 800;" xml:space="preserve">
<style type="text/css">
	.st0{fill:#FFFFFF;}
</style>
<path class="st0" d="M543.9,39.7l-17.7-17.7l0,0L543.9,39.7z M543.9,110.4l-17.7,17.7l0,0L543.9,110.4z M689.6,256.1l17.7-17.7l0,0
	L689.6,256.1z M760.3,185.4l17.7-17.7l0,0L760.3,185.4z M614.6,39.7l17.7-17.7v0L614.6,39.7z M579.3,25.1v-25V25.1z M526.2,22.1
	c-14.1,14.1-22,33.1-22,53h50c0-6.6,2.6-13,7.3-17.7L526.2,22.1z M504.3,75.1c0,19.9,7.9,39,22,53l35.4-35.3
	c-4.7-4.7-7.3-11-7.3-17.7H504.3z M526.3,128.1l145.7,145.7l35.4-35.3L561.6,92.7L526.3,128.1z M671.9,273.8
	c7,7,15.2,12.5,24.3,16.3l19.1-46.2c-3-1.3-5.8-3.1-8.1-5.4L671.9,273.8z M696.2,290c9.1,3.8,18.8,5.7,28.7,5.7l0-50
	c-3.3,0-6.5-0.6-9.6-1.9L696.2,290z M724.9,295.7c9.8,0,19.6-1.9,28.7-5.7l-19.1-46.2c-3,1.3-6.3,1.9-9.6,1.9L724.9,295.7z
	 M753.6,290c9.1-3.8,17.4-9.3,24.3-16.2l-35.3-35.4c-2.3,2.3-5.1,4.2-8.1,5.4L753.6,290z M778,273.8c7-7,12.5-15.2,16.3-24.3
	l-46.2-19.1c-1.3,3-3.1,5.8-5.4,8.1L778,273.8z M794.2,249.5c3.8-9.1,5.7-18.8,5.7-28.7l-50,0c0,3.3-0.6,6.5-1.9,9.6L794.2,249.5z
	 M799.9,220.8c0-9.8-1.9-19.6-5.7-28.7l-46.2,19.1c1.3,3,1.9,6.3,1.9,9.6L799.9,220.8z M794.2,192.1c-3.8-9.1-9.3-17.4-16.2-24.3
	l-35.4,35.3c2.3,2.3,4.2,5.1,5.4,8.1L794.2,192.1z M778,167.7L632.3,22.1l-35.3,35.4l145.7,145.7L778,167.7z M632.3,22.1
	c-14.1-14.1-33.1-22-53-22v50c6.6,0,13,2.6,17.7,7.3L632.3,22.1z M579.3,0.1c-19.9,0-39,7.9-53,22l35.3,35.4
	c4.7-4.7,11-7.3,17.7-7.3V0.1z"/>
<path class="st0" d="M402.5,39.7l17.7,17.7l0,0L402.5,39.7z M402.5,110.4l17.7-17.7l0,0L402.5,110.4z M689.6,397.5l-17.7,17.7l0,0
	L689.6,397.5z M760.3,326.7l-17.7,17.7l0,0L760.3,326.7z M473.3,39.7l-17.7,17.6l0,0L473.3,39.7z M437.9,25V0V25z M384.8,22
	c-7,7-12.5,15.2-16.3,24.3l46.2,19.1c1.3-3,3.1-5.8,5.4-8.1L384.8,22z M368.6,46.4c-3.8,9.1-5.7,18.9-5.7,28.7h50
	c0-3.3,0.6-6.5,1.9-9.6L368.6,46.4z M362.9,75.1c0,9.9,1.9,19.6,5.7,28.7l46.2-19.1c-1.3-3-1.9-6.3-1.9-9.6H362.9z M368.6,103.8
	c3.8,9.1,9.3,17.4,16.3,24.3l35.3-35.4c-2.3-2.3-4.2-5.1-5.4-8.1L368.6,103.8z M384.8,128.1l287.1,287.1l35.3-35.4L420.2,92.7
	L384.8,128.1z M672,415.2c7,7,15.2,12.5,24.4,16.2l19.1-46.2c-3-1.3-5.8-3.1-8.1-5.4L672,415.2z M696.3,431.5
	c9.1,3.8,18.9,5.7,28.7,5.7l0-50c-3.3,0-6.5-0.6-9.6-1.9L696.3,431.5z M725,437.1c9.9,0,19.6-2,28.7-5.7l-19.2-46.2
	c-3,1.3-6.3,1.9-9.6,1.9L725,437.1z M753.7,431.4c9.1-3.8,17.4-9.3,24.3-16.3l-35.4-35.3c-2.3,2.3-5.1,4.2-8.1,5.4L753.7,431.4z
	 M778.1,415.1c7-7,12.5-15.3,16.2-24.4l-46.2-19.1c-1.3,3-3.1,5.8-5.4,8.1L778.1,415.1z M794.3,390.8c3.8-9.1,5.7-18.9,5.7-28.7
	l-50,0c0,3.3-0.6,6.5-1.9,9.6L794.3,390.8z M800,362c0-9.9-2-19.6-5.7-28.7l-46.2,19.2c1.3,3,1.9,6.3,1.9,9.6L800,362z M794.2,333.3
	c-3.8-9.1-9.3-17.4-16.3-24.3l-35.3,35.4c2.3,2.3,4.2,5.1,5.4,8.1L794.2,333.3z M778,309L491,22l-35.4,35.3l287,287L778,309z
	 M491,22.1c-7-7-15.2-12.5-24.4-16.3l-19.2,46.2c3,1.3,5.8,3.1,8.1,5.4L491,22.1z M466.7,5.7C457.6,1.9,447.8,0,437.9,0v50
	c3.3,0,6.5,0.6,9.6,1.9L466.7,5.7z M437.9,0c-9.9,0-19.6,1.9-28.8,5.7l19.2,46.2c3-1.3,6.3-1.9,9.6-1.9V0z M409.2,5.7
	c-9.1,3.8-17.4,9.3-24.4,16.3l35.4,35.3c2.3-2.3,5.1-4.2,8.1-5.4L409.2,5.7z"/>
<path class="st0" d="M39.7,543.9l17.7,17.7l0,0L39.7,543.9z M110.4,543.9l-17.7,17.7l0,0L110.4,543.9z M256.1,689.6l18-17.4
	l-0.3-0.3L256.1,689.6z M185.4,760.3L167.8,778l0.3,0.3L185.4,760.3z M39.7,614.6l-17.7,17.7l0,0L39.7,614.6z M25.1,579.3h-25H25.1z
	 M57.4,561.6c2.3-2.3,5.1-4.2,8.1-5.4L46.4,510c-9.1,3.8-17.4,9.3-24.3,16.3L57.4,561.6z M65.5,556.2c3-1.3,6.3-1.9,9.6-1.9v-50
	c-9.9,0-19.6,1.9-28.7,5.7L65.5,556.2z M75.1,554.3c3.3,0,6.5,0.6,9.6,1.9l19.1-46.2c-9.1-3.8-18.9-5.7-28.7-5.7V554.3z M84.7,556.2
	c3,1.3,5.8,3.1,8.1,5.4l35.4-35.3c-7-7-15.2-12.5-24.3-16.3L84.7,556.2z M92.8,561.6l145.7,145.7l35.3-35.3L128.1,526.3L92.8,561.6z
	 M238.1,707c4.6,4.7,7.1,11,7,17.6l50,0.4c0.2-19.7-7.4-38.6-21-52.7L238.1,707z M245.2,724.6c-0.1,6.6-2.7,12.8-7.3,17.5l35.3,35.3
	c13.9-13.9,21.8-32.7,22-52.4L245.2,724.6z M237.8,742c-4.6,4.6-10.9,7.3-17.5,7.3l0.4,50c19.7-0.2,38.5-8.1,52.4-22L237.8,742z
	 M220.4,749.3c-6.6,0.1-12.9-2.5-17.6-7l-34.7,36c14.1,13.7,33.1,21.2,52.7,21L220.4,749.3z M203.1,742.6L57.4,596.9l-35.3,35.4
	L167.8,778L203.1,742.6z M57.4,596.9c-4.7-4.7-7.3-11-7.3-17.7h-50c0,19.9,7.9,39,22,53L57.4,596.9z M50.1,579.3
	c0-6.6,2.6-13,7.3-17.7l-35.4-35.3c-14.1,14.1-22,33.1-22,53H50.1z"/>
<path class="st0" d="M39.7,402.5l17.6,17.7l0,0L39.7,402.5z M110.4,402.5l17.7-17.7l0,0L110.4,402.5z M397.5,689.6l17.7-17.7l0,0
	L397.5,689.6z M326.7,760.3l17.7-17.7l0,0L326.7,760.3z M39.7,473.3l17.7-17.7l0,0L39.7,473.3z M25,437.9h25H25z M57.4,420.2
	c4.7-4.7,11-7.3,17.7-7.3v-50c-19.9,0-39,7.9-53,22L57.4,420.2z M75.1,412.9c6.6,0,13,2.6,17.7,7.3l35.3-35.4
	c-14.1-14.1-33.1-22-53-22V412.9z M92.7,420.2l287.1,287.1l35.3-35.3L128.1,384.8L92.7,420.2z M379.8,707.3
	c4.7,4.7,7.3,11.1,7.3,17.7l50,0c0-19.9-7.9-39-21.9-53.1L379.8,707.3z M387.1,725c0,6.6-2.6,13-7.4,17.7l35.3,35.4
	c14.1-14.1,22-33.1,22-53L387.1,725z M379.8,742.7c-4.7,4.7-11.1,7.3-17.7,7.3l0,50c19.9,0,39-7.9,53.1-21.9L379.8,742.7z
	 M362.1,750c-6.6,0-13-2.6-17.7-7.3L309,778c14.1,14.1,33.1,22,53,22L362.1,750z M344.4,742.6l-287-287L22,491l287,287L344.4,742.6z
	 M57.4,455.6c-2.3-2.3-4.2-5.1-5.4-8.1L5.7,466.7c3.8,9.1,9.3,17.4,16.3,24.4L57.4,455.6z M51.9,447.5c-1.3-3-1.9-6.3-1.9-9.6H0
	c0,9.9,2,19.7,5.7,28.8L51.9,447.5z M50,437.9c0-3.3,0.7-6.6,1.9-9.6L5.7,409.1C2,418.3,0,428,0,437.9H50z M51.9,428.3
	c1.3-3,3.1-5.8,5.4-8.1l-35.3-35.4c-7,7-12.6,15.2-16.3,24.4L51.9,428.3z"/>
<path class="st0" d="M218.6,510.7L200.9,493c-4.7,4.7-7.3,11-7.3,17.7c0,6.6,2.6,13,7.3,17.7L218.6,510.7z M510.7,218.6l17.7-17.7
	c-4.7-4.7-11-7.3-17.7-7.3c-6.6,0-13,2.6-17.7,7.3L510.7,218.6z M581.4,289.3l17.7,17.7c9.8-9.8,9.8-25.6,0-35.3L581.4,289.3z
	 M289.3,581.4l-17.7,17.7c4.7,4.7,11,7.3,17.7,7.3s13-2.6,17.7-7.3L289.3,581.4z M236.3,528.4l292.1-292.1L493,200.9L200.9,493
	L236.3,528.4z M493,236.3l70.7,70.7l35.3-35.3l-70.7-70.7L493,236.3z M563.7,271.6L271.6,563.7l35.3,35.3L599.1,307L563.7,271.6z
	 M307,563.7L236.3,493l-35.3,35.4l70.7,70.7L307,563.7z"/>
</svg>
